Coordinates
version=1
nRows=60
nColumns=12
inDegrees=yes

Units are S.I. units (second, meters, Newtons, ...)
Angles are in degrees

endheader
time	SC_y	SC_z	SC_x	AC_y	AC_z	AC_x	GH_y	GH_z	GH_yy	EL_x	PS_y
       0.0               -26.5          2.508          53.84          60.16         -1.558          -11.3          34.27          2.691         -53.78          75.77          78.69
  0.006656              -26.51          2.512          53.84          60.16          -1.56          -11.3          34.28          2.693         -53.79          75.76          78.69
   0.01331              -26.51          2.517          53.83          60.16         -1.561          -11.3          34.29          2.696         -53.79          75.76          78.68
   0.01997              -26.51          2.521          53.82          60.16         -1.562          -11.3           34.3          2.698          -53.8          75.75          78.68
   0.02663              -26.51          2.527          53.82          60.16         -1.564          -11.3          34.32          2.701         -53.81          75.74          78.67
   0.03328              -26.52          2.532          53.81          60.16         -1.566          -11.3          34.33          2.704         -53.82          75.73          78.66
   0.03994              -26.52          2.538           53.8          60.16         -1.567          -11.3          34.35          2.708         -53.83          75.73          78.66
    0.0466              -26.52          2.545          53.79          60.16         -1.569          -11.3          34.37          2.711         -53.84          75.72          78.65
   0.05325              -26.53          2.551          53.79          60.16         -1.571         -11.31          34.39          2.715         -53.86          75.71          78.64
   0.05991              -26.53          2.559          53.78          60.16         -1.574         -11.31          34.41          2.719         -53.87           75.7          78.63
   0.06656              -26.54          2.566          53.77          60.16         -1.576         -11.31          34.43          2.724         -53.88          75.69          78.62
   0.07322              -26.54          2.575          53.76          60.16         -1.578         -11.31          34.45          2.728          -53.9          75.67          78.61
   0.07988              -26.55          2.584          53.74          60.16         -1.581         -11.31          34.48          2.734         -53.91          75.66           78.6
   0.08653              -26.55          2.594          53.73          60.16         -1.584         -11.32           34.5          2.739         -53.93          75.65          78.59
   0.09319              -26.56          2.604          53.72          60.16         -1.587         -11.32          34.53          2.745         -53.95          75.63          78.58
   0.09985              -26.57          2.616           53.7          60.16         -1.591         -11.32          34.57          2.752         -53.97          75.62          78.57
    0.1065              -26.57          2.628          53.69          60.16         -1.595         -11.33           34.6          2.759         -53.99           75.6          78.55
    0.1132              -26.58          2.642          53.67          60.16         -1.599         -11.33          34.64          2.766         -54.02          75.58          78.54
    0.1198              -26.59          2.657          53.65          60.16         -1.603         -11.33          34.68          2.775         -54.05          75.56          78.52
    0.1265               -26.6          2.673          53.63          60.16         -1.608         -11.34          34.72          2.784         -54.07          75.54           78.5
    0.1331              -26.61          2.691           53.6          60.16         -1.613         -11.34          34.77          2.794         -54.11          75.51          78.48
    0.1398              -26.62           2.71          53.58          60.16         -1.619         -11.35          34.83          2.805         -54.14          75.48          78.46
    0.1464              -26.63          2.732          53.55          60.16         -1.626         -11.35          34.89          2.817         -54.18          75.45          78.43
    0.1531              -26.65          2.756          53.52          60.16         -1.633         -11.36          34.95          2.831         -54.22          75.42           78.4
    0.1598              -26.66          2.783          53.48          60.16         -1.641         -11.36          35.03          2.846         -54.27          75.38          78.37
    0.1664              -26.68          2.813          53.44          60.16          -1.65         -11.37          35.11          2.863         -54.33          75.34          78.34
    0.1731               -26.7          2.846           53.4          60.16          -1.66         -11.38           35.2          2.882         -54.39          75.29           78.3
    0.1797              -26.72          2.884          53.35          60.16         -1.671         -11.39          35.31          2.903         -54.45          75.24          78.26
    0.1864              -26.74          2.926          53.29          60.16         -1.684          -11.4          35.42          2.927         -54.53          75.18          78.21
     0.193              -26.77          2.975          53.23          60.16         -1.699         -11.41          35.56          2.954         -54.62          75.11          78.15
    0.1997               -26.8           3.03          53.16          60.16         -1.715         -11.42          35.71          2.985         -54.71          75.04          78.09
    0.2064              -26.84          3.093          53.08          60.16         -1.734         -11.44          35.89          3.021         -54.83          74.95          78.01
     0.213              -26.88          3.166          52.98          60.16         -1.756         -11.46          36.09          3.062         -54.96          74.85          77.93
    0.2197              -26.93          3.251          52.87          60.15         -1.782         -11.48          36.32           3.11         -55.11          74.73          77.83
    0.2263              -26.99           3.35          52.74          60.15         -1.811          -11.5           36.6          3.166         -55.29          74.59          77.72
     0.233              -27.05          3.467          52.59          60.15         -1.846         -11.53          36.92          3.232          -55.5          74.42          77.58
    0.2396              -27.13          3.606           52.4          60.15         -1.888         -11.57           37.3           3.31         -55.75          74.23          77.42
    0.2463              -27.23          3.773          52.19          60.15         -1.938         -11.61          37.76          3.405         -56.05          73.99          77.23
    0.2529              -27.34          3.974          51.92          60.15         -1.999         -11.66          38.32          3.518         -56.41          73.71          76.99
    0.2596              -27.49           4.22           51.6          60.14         -2.073         -11.72           39.0          3.657         -56.85          73.37          76.71
    0.2663              -27.66          4.524           51.2          60.14         -2.164         -11.79          39.84          3.829          -57.4          72.94          76.36
    0.2729              -27.88          4.903          50.71          60.13         -2.278         -11.89          40.89          4.043         -58.08          72.41          75.92
    0.2796              -28.15          5.381          50.08          60.13         -2.421          -12.0          42.21          4.312         -58.94          71.74          75.37
    0.2862               -28.5          5.987          49.29          60.12         -2.604         -12.15          43.89          4.655         -60.03          70.89          74.66
    0.2929              -28.94          6.764          48.27          60.11         -2.837         -12.35          46.04          5.093         -61.42           69.8          73.76
    0.2995              -29.52          7.761          46.96           60.1         -3.136         -12.59          48.79          5.656         -63.21           68.4          72.61
    0.3062              -30.25          9.034          45.29          60.08         -3.519         -12.91          52.32          6.375          -65.5          66.61          71.14
    0.3129              -31.16          10.64           43.2          60.06           -4.0          -13.3          56.74          7.278         -68.37          64.36          69.28
    0.3195              -32.28          12.59          40.64          60.04         -4.586         -13.78          62.14           8.38         -71.87          61.63          67.02
    0.3262              -33.58          14.85          37.68          60.01         -5.265         -14.34          68.39          9.656         -75.93          58.45           64.4
    0.3328              -34.98           17.3          34.47          59.98         -6.001         -14.95          75.17          11.04         -80.33          55.02          61.57
    0.3395              -36.39          19.74          31.26          59.95         -6.736         -15.55          81.94          12.42         -84.73          51.58          58.73
    0.3461              -37.68          22.01           28.3          59.93         -7.416         -16.11          88.19           13.7         -88.79          48.41          56.11
    0.3528               -38.8          23.96          25.75           59.9         -8.002         -16.59          93.59           14.8         -92.29          45.67          53.86
    0.3594              -39.72          25.56          23.65          59.88         -8.483         -16.99          98.01           15.7         -95.16          43.42           52.0
    0.3661              -40.45          26.83          21.98          59.87         -8.865          -17.3          101.5          16.42         -97.45          41.64          50.53
    0.3728              -41.02          27.83          20.68          59.86         -9.164         -17.55          104.3          16.98         -99.24          40.24          49.37
    0.3794              -41.47          28.61          19.66          59.85         -9.398         -17.74          106.4          17.42         -100.6          39.15          48.47
    0.3861              -41.82          29.21          18.86          59.84          -9.58         -17.89          108.1          17.76         -101.7           38.3          47.77
    0.3927              -42.09          29.69          18.24          59.83         -9.723         -18.01          109.4          18.03         -102.6          37.63          47.22
